<svg xmlns="http://www.w3.org/2000/svg" width="512" height="512" viewBox="0 0 512 512">
  <!-- Transparent background -->

  <!-- === MAIN PAW PAD — large, fills most of the canvas === -->
  <path d="M256 460
           C200 460 145 425 118 375
           C90 325 98 270 125 230
           C152 190 200 178 256 178
           C312 178 360 190 387 230
           C414 270 422 325 394 375
           C367 425 312 460 256 460Z"
        fill="#e7b633"/>

  <!-- === TOE PADS (4 large oval toes with pointed claws) === -->

  <!-- Left outer toe -->
  <ellipse cx="108" cy="155" rx="42" ry="56" transform="rotate(-22 108 155)" fill="#e7b633"/>
  <!-- Left outer claw -->
  <path d="M78 98 L70 62 L94 90" fill="#e7b633"/>

  <!-- Left inner toe -->
  <ellipse cx="195" cy="105" rx="38" ry="52" transform="rotate(-8 195 105)" fill="#e7b633"/>
  <!-- Left inner claw -->
  <path d="M182 54 L178 16 L200 48" fill="#e7b633"/>

  <!-- Right inner toe -->
  <ellipse cx="317" cy="105" rx="38" ry="52" transform="rotate(8 317 105)" fill="#e7b633"/>
  <!-- Right inner claw -->
  <path d="M330 54 L334 16 L312 48" fill="#e7b633"/>

  <!-- Right outer toe -->
  <ellipse cx="404" cy="155" rx="42" ry="56" transform="rotate(22 404 155)" fill="#e7b633"/>
  <!-- Right outer claw -->
  <path d="M434 98 L442 62 L418 90" fill="#e7b633"/>
</svg>
